<svg id="Layer_1" data-name="Layer 1" xmlns="http://www.w3.org/2000/svg" viewBox="0 0 263.2546 286.6952"><title>NAME</title><path d="M19.0025,1.0008h.79l5.6412,11.4658L31.1116,1.0008h.7534V13.2567h-.4778V1.5152L25.5808,13.2567h-.2756L19.48,1.5152V13.2567h-.4778Z" transform="translate(-17.974 -0.937)" style="fill:#fff;stroke:#fff;stroke-miterlimit:10;stroke-width:0.12760305404663086px"/><path d="M76.6258,8.9939l-1.8375,4.2627h-.5328L79.5106,1.0008h.6248l5.2552,12.2559h-.5328L83.02,8.9939,82.8,8.5528,79.8231,1.46,76.8279,8.5528Z" transform="translate(-17.974 -0.937)" style="fill:#fff;stroke:#fff;stroke-miterlimit:10;stroke-width:0.12760305404663086px"/><path d="M127.7812,13.2567V1.0008h2.7931a7.5809,7.5809,0,0,1,3.2524.4775,3.2025,3.2025,0,0,1,1.2678,1.3508,4.0928,4.0928,0,0,1,.496,1.9569,3.9029,3.9029,0,0,1-1.02,2.7559,3.3438,3.3438,0,0,1-2.5635,1.1026h-.496l3.289,4.6122h-.6248l-3.5831-5.0533h.7566A4.0769,4.0769,0,0,0,133.71,7.65a3.2824,3.2824,0,0,0,1.4024-2.8451,3.5577,3.5577,0,0,0-.4055-1.6539,3.13,3.13,0,0,0-1.05-1.21,3.337,3.337,0,0,0-1.4924-.4616q-.3686-.0374-1.5843-.0374h-2.3215V13.2567Z" transform="translate(-17.974 -0.937)" style="fill:#fff;stroke:#fff;stroke-miterlimit:10;stroke-width:0.12760305404663086px"/><path d="M176.8789,1.4414l.0184-.4406H183.99v.4406h-3.3262V13.2567h-.4775V1.4414Z" transform="translate(-17.974 -0.937)" style="fill:#fff;stroke:#fff;stroke-miterlimit:10;stroke-width:0.12760305404663086px"/><path d="M226.4542,1.0008h.4775V13.2567h-.4775Z" transform="translate(-17.974 -0.937)" style="fill:#fff;stroke:#fff;stroke-miterlimit:10;stroke-width:0.12760305404663086px"/><path d="M270.5535,1.0008h.7362l8.4328,11.5944V1.0008H280.2V13.2567h-.6246L271.031,1.5152V13.2567h-.4775Z" transform="translate(-17.974 -0.937)" style="fill:#fff;stroke:#fff;stroke-miterlimit:10;stroke-width:0.12760305404663086px"/><path d="M18.0378,287.348V275.0922h3.381a6.6067,6.6067,0,0,1,2.9217.5144,5.9305,5.9305,0,0,1,2.38,2.3243,6.365,6.365,0,0,1,.9463,3.2982,6.4664,6.4664,0,0,1-1.121,3.5649,5.2341,5.2341,0,0,1-2.8848,2.3337,10.257,10.257,0,0,1-2.5359.22Zm.4778-11.8152v11.3741h2.983a5.9742,5.9742,0,0,0,2.4676-.4057,5.2306,5.2306,0,0,0,1.5282-1.1424,5.91,5.91,0,0,0,1.6942-4.166,5.7408,5.7408,0,0,0-.8287-2.9683,5.8141,5.8141,0,0,0-2.1727-2.1568,5.715,5.715,0,0,0-2.7437-.5348Z" transform="translate(-17.974 -0.937)" style="fill:#fff;stroke:#fff;stroke-miterlimit:10;stroke-width:0.12760305404663086px"/><path d="M62.5782,283.0853l-1.8375,4.2627h-.5328l5.2552-12.2559h.6248L71.343,287.348H70.81l-1.8373-4.2627-.2206-.4411-2.9767-7.0929L62.78,282.6442Z" transform="translate(-17.974 -0.937)" style="fill:#fff;stroke:#fff;stroke-miterlimit:10;stroke-width:0.12760305404663086px"/><path d="M102.69,275.0922h.5513l4.8325,11.4289,4.8509-11.4289h.5513L108.24,287.348h-.3492Z" transform="translate(-17.974 -0.937)" style="fill:#fff;stroke:#fff;stroke-miterlimit:10;stroke-width:0.12760305404663086px"/><path d="M147.194,283.0853l-1.8373,4.2627h-.5328l5.2552-12.2559h.6251l5.2547,12.2559h-.5323l-1.8373-4.2627-.2213-.4411-2.9767-7.0929-2.9947,7.0929Z" transform="translate(-17.974 -0.937)" style="fill:#fff;stroke:#fff;stroke-miterlimit:10;stroke-width:0.12760305404663086px"/><path d="M189.8977,275.0922h.4775v11.8147h5.2v.4411h-5.6778Z" transform="translate(-17.974 -0.937)" style="fill:#fff;stroke:#fff;stroke-miterlimit:10;stroke-width:0.12760305404663086px"/><path d="M234.1256,287.5684a6.151,6.151,0,0,1-4.511-1.8373,6.0622,6.0622,0,0,1-1.8468-4.4651,6.2193,6.2193,0,0,1,1.8283-4.5384,6.0608,6.0608,0,0,1,4.4925-1.8562,6.3069,6.3069,0,0,1,6.3946,6.3762,6.0843,6.0843,0,0,1-1.8468,4.4836A6.1518,6.1518,0,0,1,234.1256,287.5684Zm-.0274-12.2559a5.6348,5.6348,0,0,0-4.16,1.7052,5.9125,5.9125,0,0,0,4.2144,10.11,5.6107,5.6107,0,0,0,4.15-1.7236,5.9033,5.9033,0,0,0-4.2049-10.0916Z" transform="translate(-17.974 -0.937)" style="fill:#fff;stroke:#fff;stroke-miterlimit:10;stroke-width:0.12760305404663086px"/><path d="M277.6,287.5684a3.4327,3.4327,0,0,1-2.4349-.9371,3.585,3.585,0,0,1-1.13-2.3886h.5144a3.4566,3.4566,0,0,0,1.0014,2.1084,2.8579,2.8579,0,0,0,2.0491.7766,3.077,3.077,0,0,0,2.1867-.8464,2.7456,2.7456,0,0,0,.9-2.08,2.5781,2.5781,0,0,0-1.4151-2.4294,7.6062,7.6062,0,0,0-1.7271-.5887,4.9316,4.9316,0,0,1-2.5909-1.2885,2.7383,2.7383,0,0,1-.6246-1.8034,3.0627,3.0627,0,0,1,.9555-2.3,3.3081,3.3081,0,0,1,2.3886-.92,3.0383,3.0383,0,0,1,2.1314.7721,3.3528,3.3528,0,0,1,1.0293,2.0945h-.5159a2.5627,2.5627,0,0,0-2.71-2.4255,2.7976,2.7976,0,0,0-2.0092.7547,2.5284,2.5284,0,0,0-.7925,1.9135,2.172,2.172,0,0,0,.645,1.6474,4.5923,4.5923,0,0,0,2.101.966,6.9745,6.9745,0,0,1,2.2854.8464,3.0928,3.0928,0,0,1,1.3264,2.6866,3.2627,3.2627,0,0,1-1.0378,2.4384A3.501,3.501,0,0,1,277.6,287.5684Z" transform="translate(-17.974 -0.937)" style="fill:#fff;stroke:#fff;stroke-miterlimit:10;stroke-width:0.12760305404663086px"/></svg>