<?xml version="1.0" standalone="no"?>
<!DOCTYPE svg PUBLIC "-//W3C//DTD SVG 20010904//EN"
 "http://www.w3.org/TR/2001/REC-SVG-20010904/DTD/svg10.dtd">
<svg version="1.0" xmlns="http://www.w3.org/2000/svg"
 width="1000.000000pt" height="1000.000000pt" viewBox="0 0 1000.000000 1000.000000"
 preserveAspectRatio="xMidYMid meet">
<metadata>
Created by potrace 1.15, written by Peter Selinger 2001-2017
</metadata>
<g transform="translate(0.000000,1000.000000) scale(0.100000,-0.100000)"
fill="#000000" stroke="none">
<path d="M2850 9794 c0 -22 -9 -127 -20 -234 -25 -242 -28 -623 -5 -845 40
-406 62 -482 304 -1068 34 -83 165 -345 273 -547 l29 -55 -36 40 c-21 22 -120
139 -221 260 -101 121 -205 245 -231 275 -25 30 -60 76 -76 103 -17 26 -33 47
-36 47 -18 0 53 -411 100 -574 16 -55 27 -101 26 -103 -5 -4 -409 464 -442
510 -8 12 -17 18 -20 15 -6 -6 68 -143 132 -243 44 -69 44 -69 12 -39 -33 31
-208 157 -384 277 -65 45 -107 85 -183 175 -140 167 -286 355 -464 600 -131
179 -191 250 -389 459 -129 135 -273 283 -322 328 -48 45 -87 87 -87 93 0 6
-5 14 -11 17 -17 11 -3 -228 21 -340 33 -161 123 -413 208 -580 99 -196 576
-814 991 -1284 132 -148 220 -258 221 -273 0 -21 -406 286 -449 339 -36 44
-50 39 -22 -8 27 -47 84 -211 121 -354 34 -127 139 -434 172 -498 20 -41 20
-58 -2 -32 -7 8 -17 15 -23 15 -6 0 5 -17 25 -37 20 -22 61 -92 96 -166 67
-141 72 -137 -44 -42 -101 82 -491 431 -546 488 -62 63 -69 64 -39 1 10 -21
33 -73 51 -114 18 -41 48 -106 67 -144 19 -37 33 -70 31 -72 -10 -10 -511 405
-738 610 -47 43 -157 126 -245 186 -321 217 -455 318 -557 420 -43 43 -79 75
-81 73 -8 -7 43 -220 74 -308 76 -224 263 -530 413 -680 94 -94 423 -379 607
-526 58 -46 121 -97 140 -112 l34 -28 -40 22 c-22 12 -48 29 -58 37 -9 8 -19
13 -22 10 -3 -3 10 -48 28 -99 90 -246 295 -580 432 -699 308 -268 881 -641
1300 -846 126 -62 134 -82 17 -43 -170 56 -663 262 -780 327 -35 19 -65 32
-68 29 -7 -6 253 -165 392 -238 63 -34 114 -62 114 -64 0 -5 -256 51 -463 100
-362 87 -735 204 -975 306 -52 22 -122 47 -155 55 -64 15 -151 37 -417 105
-85 21 -166 39 -180 39 -65 0 -67 -59 -4 -160 90 -146 248 -306 409 -415 199
-135 827 -337 1488 -479 65 -14 130 -32 145 -40 28 -14 129 -52 344 -130 145
-52 396 -129 575 -177 l122 -32 -212 -72 c-235 -80 -402 -141 -642 -235 -153
-59 -181 -71 -259 -105 -18 -8 -64 -21 -102 -29 -38 -8 -136 -33 -219 -56
-217 -59 -381 -95 -588 -132 -165 -29 -201 -31 -392 -32 -205 0 -250 5 -327
39 -10 4 -18 3 -18 -2 0 -15 256 -138 355 -171 274 -92 643 -142 1056 -142
182 0 212 3 430 40 129 21 466 85 749 140 283 56 538 102 565 103 39 1 84 -12
210 -60 88 -34 216 -80 285 -101 l125 -39 -60 -31 c-165 -87 -270 -150 -273
-164 -2 -12 8 -17 45 -21 52 -5 279 -53 293 -62 4 -3 86 -19 181 -35 192 -34
545 -70 682 -70 127 0 116 -12 -48 -56 -167 -44 -243 -55 -368 -56 -70 0 -126
-2 -124 -4 9 -10 363 -94 437 -104 46 -6 88 -14 93 -17 4 -2 31 -6 60 -8 29
-2 104 -8 167 -14 63 -6 215 -16 336 -21 253 -11 237 -13 658 75 142 30 281
55 308 55 l49 0 -178 -133 c-221 -166 -373 -290 -486 -397 -86 -81 -109 -117
-45 -68 44 33 393 248 548 337 l125 72 -75 -67 c-139 -125 -504 -493 -497
-500 4 -4 24 8 45 28 116 111 453 318 687 423 l80 35 -35 -31 c-510 -463 -830
-763 -790 -743 11 6 404 289 560 403 42 31 42 30 -106 -139 -60 -69 -164 -192
-231 -275 -67 -82 -138 -169 -158 -193 -55 -63 -32 -51 54 31 112 104 291 242
486 372 171 113 377 237 384 229 4 -4 -50 -63 -446 -484 -222 -235 -267 -292
-196 -242 50 34 58 36 32 6 -14 -16 -66 -78 -114 -139 -48 -60 -104 -127 -123
-147 -38 -40 -37 -65 1 -31 12 11 183 126 380 257 255 168 352 227 337 205
-12 -16 -20 -32 -18 -34 2 -2 40 29 84 69 44 41 119 99 167 130 l87 56 -150
-170 c-82 -94 -197 -229 -257 -302 -105 -127 -272 -327 -343 -411 -34 -41 -35
-41 -5 -19 393 291 747 544 736 524 -5 -10 -28 -43 -50 -72 -51 -68 -53 -85
-3 -38 20 20 102 82 182 139 80 56 171 122 202 146 31 24 60 43 63 43 4 0 -26
-36 -66 -81 -137 -149 -250 -283 -341 -404 -50 -66 -103 -132 -116 -148 -20
-20 -22 -27 -10 -27 9 0 21 7 28 15 19 23 400 232 400 220 0 -4 -12 -26 -26
-51 -14 -24 -22 -44 -16 -44 19 0 89 58 140 118 36 41 76 74 125 101 40 22
124 71 187 109 63 38 117 68 118 66 6 -4 -287 -554 -309 -581 -7 -7 -9 -16 -6
-20 4 -3 32 17 62 46 30 29 60 49 65 46 6 -3 36 20 68 53 31 32 122 111 202
175 80 63 175 140 211 171 l66 55 -12 -58 c-10 -47 -26 -76 -87 -157 -42 -55
-86 -107 -99 -116 -47 -31 -11 -27 81 11 52 21 118 49 146 64 l51 26 -14 -72
c-7 -39 -12 -76 -10 -82 2 -5 45 31 95 82 74 73 92 87 92 70 l1 -22 18 23 c11
12 31 54 46 92 21 56 39 82 88 130 34 32 62 58 63 57 2 -1 -11 -97 -26 -212
-32 -225 -36 -285 -20 -285 5 0 41 30 80 66 55 52 71 63 76 50 8 -20 40 -21
48 0 3 8 13 45 21 81 8 36 25 79 37 97 24 35 109 126 118 126 13 0 19 -227 6
-252 -12 -27 7 -21 24 6 47 76 96 146 103 146 4 0 7 -15 8 -32 1 -27 6 -18 26
45 17 49 29 73 34 65 10 -15 10 -14 33 97 9 44 32 154 52 245 66 304 76 392
70 600 -8 270 -29 382 -128 675 -70 207 -138 331 -245 448 -29 32 -53 62 -53
68 0 5 -5 9 -11 9 -6 0 -31 20 -56 45 -24 25 -47 45 -50 45 -3 0 -13 8 -22 18
-41 45 -259 187 -362 236 -20 9 -46 26 -57 36 -12 11 -25 20 -30 20 -5 0 -20
8 -33 18 -25 20 -76 49 -195 113 -39 21 -135 63 -215 94 -79 31 -160 64 -179
74 -19 11 -66 31 -105 45 -38 15 -79 30 -90 35 -36 16 -198 79 -315 121 -63
23 -137 52 -165 64 -27 13 -106 48 -175 79 -69 31 -161 71 -205 90 -110 47
-223 109 -265 146 -41 37 -155 120 -290 211 -52 35 -102 70 -110 77 -8 7 -40
32 -70 56 -30 23 -60 46 -66 52 -6 5 -44 39 -85 75 -92 81 -157 141 -273 251
-50 48 -131 121 -181 164 -49 42 -137 125 -195 185 -58 59 -123 119 -145 133
-46 29 -424 407 -572 572 -527 588 -883 1098 -1192 1710 -128 252 -199 420
-307 724 -30 85 -90 232 -133 326 -105 227 -215 506 -294 745 -94 284 -97 294
-106 371 -11 80 -21 102 -21 43z m1924 -7279 c53 -14 100 -25 104 -26 4 0 -45
-14 -108 -30 -93 -25 -143 -32 -260 -36 -120 -5 -139 -8 -110 -16 35 -10 35
-10 -34 -22 -37 -7 -82 -9 -99 -6 -29 6 -26 8 49 43 66 31 121 52 284 111 31
11 81 6 174 -18z"/>
</g>
</svg>
